<?xml version="1.0" encoding="utf-8"?>
<!-- Generator: Adobe Illustrator 19.0.0, SVG Export Plug-In . SVG Version: 6.00 Build 0)  -->
<svg version="1.1" id="Capa_1" xmlns="http://www.w3.org/2000/svg" xmlns:xlink="http://www.w3.org/1999/xlink" x="0px" y="0px"
	 viewBox="0 0 841.9 595.3" style="enable-background:new 0 0 841.9 595.3;" xml:space="preserve">
<style type="text/css">
	.st0{fill:#FFFFFF;}
	.st1{fill:url(#XMLID_3_);}
	.st2{fill:url(#XMLID_4_);}
	.st3{fill:url(#XMLID_5_);}
	.st4{fill:url(#XMLID_6_);}
	.st5{fill:url(#XMLID_7_);}
	.st6{fill:url(#XMLID_8_);}
	.st7{fill:#509BC0;}
	.st8{fill:#6EB2CC;}
	.st9{fill:#555555;}
</style>
<path id="XMLID_1_" class="st0" d="M654.2,17.3H188.5c-25.9,0-46.9,21-46.9,46.9v465.7c0,25.9,21,46.9,46.9,46.9h465.7
	c25.9,0,46.9-21,46.9-46.9V64.2C701.1,38.3,680.1,17.3,654.2,17.3z"/>
<g id="XMLID_1300_">
	<linearGradient id="XMLID_3_" gradientUnits="userSpaceOnUse" x1="327.8091" y1="495.6844" x2="327.8091" y2="403.414">
		<stop  offset="0" style="stop-color:#DC911B"/>
		<stop  offset="1" style="stop-color:#E7B142"/>
	</linearGradient>
	<path id="XMLID_1314_" class="st1" d="M361.2,490.8c-6.3-9.5-12.6-19-19-28.9c1.4-0.7,2.5-1.3,3.6-1.8c5.5-2.9,9.7-7,12.3-12.7
		c8.7-19.6-2.9-41-24.2-43.2c-12.6-1.3-25.3-0.6-38-0.7c-2,0-3.1,1-3.1,3.3c0,28.5,0,57.1,0,85.6c0,2.4,0.9,3.3,3.3,3.3
		c4.4-0.1,8.7,0,13.1,0c4.2,0,4.5-0.3,4.5-4.4c0-7.8,0-15.7,0-23.5c0-0.9,0.2-2.1,0.7-2.6c1.9-1.4,7.6,0.1,8.9,2.2
		c5.2,8.6,10.5,17.2,15.8,25.7c0.7,1.1,2.1,2.4,3.2,2.5c6.2,0.2,12.4,0.2,18.6,0.1c2,0,2.6-1.1,1.6-2.9
		C362.1,492.1,361.6,491.4,361.2,490.8z M338.9,438.4c-0.8,5-4,7.7-9.8,8.2c-5,0.4-10,0.1-15.5,0.1c0-7.6,0-14.9,0.1-22.2
		c0-0.6,0.9-1.6,1.4-1.6c5.7,0.1,11.4,0.2,17,0.8c3.6,0.4,6,3.1,6.6,6.8C339.1,433.1,339.3,435.8,338.9,438.4z"/>
	<linearGradient id="XMLID_4_" gradientUnits="userSpaceOnUse" x1="524.1331" y1="497.432" x2="524.1331" y2="403.4144">
		<stop  offset="0" style="stop-color:#DC911B"/>
		<stop  offset="1" style="stop-color:#E7B142"/>
	</linearGradient>
	<path id="XMLID_1311_" class="st2" d="M553.8,406.6c0-2.1-1.1-3.2-3.3-3.2c-4.4,0-8.9,0-13.3,0c-2.2,0-3.1,1-3.1,3.2
		c0.1,3.7,0,7.3,0,11c0,3.6,0,7.3,0,11.2c-2-0.5-3.6-0.9-5.1-1.3c-15.7-3.6-31,4.7-33.4,19.7c-1.5,8.8-1.3,18.2-0.3,27.1
		c1.3,11.9,9,19.2,20.6,21.9c11.4,2.6,22.5,0.5,33.4-2.6c4.4-1.3,4.6-1.7,4.6-6.4c0-24.4,0-48.7,0-73.1
		C553.8,411.6,553.8,409.1,553.8,406.6z M531.8,479.2c-3.4,0.2-6.8,0.7-10.1,0.3c-4-0.4-6.6-3.3-6.9-7.5c-0.4-6.6-0.4-13.3-0.1-20
		c0.2-4,2.7-6.8,6.9-7.5c1.8-0.3,3.7-0.6,5.4-0.4c6.6,0.7,7,1.2,7,7.8c0,3.5,0,7,0,10.4c0,4.6-0.1,9.3,0,13.9
		C534.2,478,533.6,479.1,531.8,479.2z"/>
	<linearGradient id="XMLID_5_" gradientUnits="userSpaceOnUse" x1="456.8631" y1="497.427" x2="456.8631" y2="426.6861">
		<stop  offset="0" style="stop-color:#DC911B"/>
		<stop  offset="1" style="stop-color:#E7B142"/>
	</linearGradient>
	<path id="XMLID_1308_" class="st3" d="M486.3,470.1c-0.1-7.2,0-14.3-0.6-21.4c-0.8-8-4.3-14.9-11.9-18.3
		c-14.3-6.3-28.1-3.9-41.4,3.3c-1.6,0.9-1.4,2.2-0.8,3.5c1.5,2.9,3.1,5.8,4.5,8.8c1,2.1,2.2,2.2,4.4,1.6c5.2-1.4,10.5-2.9,15.8-3.2
		c7.4-0.5,10.6,3.5,10,11.3c-0.5,0.1-0.7,0.2-1,0.2c-0.9,0-1.7,0-2.6-0.2c-7.3-0.9-14.5-0.6-21.5,1.7c-5.6,1.9-10.2,5-12.4,10.9
		c-4.1,11.5,1.5,23.2,13.2,26.9c14,4.4,27.9,2.3,41.8-1.1c2.1-0.5,2.6-2,2.5-4C486.2,483.3,486.3,476.7,486.3,470.1z M466.5,478.6
		c0,0.6-0.8,1.8-1.3,1.8c-4.5,0.1-9,0.3-13.4-0.2c-2.7-0.3-4.2-2.7-4.2-5.5c0-2.9,1.6-4.8,4.2-5.6c4.8-1.5,9.7-0.7,14.7,0
		C466.6,472.4,466.6,475.5,466.5,478.6z"/>
	<linearGradient id="XMLID_6_" gradientUnits="userSpaceOnUse" x1="591.9076" y1="497.3092" x2="591.9076" y2="426.8043">
		<stop  offset="0" style="stop-color:#DC911B"/>
		<stop  offset="1" style="stop-color:#E7B142"/>
	</linearGradient>
	<path id="XMLID_1305_" class="st4" d="M605.2,428.9c-7-2.5-14.2-2.7-21.4-1.1c-12.3,2.8-19.2,9.8-20.6,22.2c-0.9,7.9-0.7,16-0.1,24
		c0.6,8.6,5.1,15,12.7,19.3c11.8,6.7,32.9,4.6,43.1-4.2c1.5-1.3,1.6-2.5,0.4-4c-1.8-2.4-3.7-4.7-5.4-7.2c-1.5-2.3-3-2.4-5.3-1.1
		c-4.3,2.6-9.1,3.7-14.1,4c-8,0.4-12.4-3.9-11.7-12c1.2,0,2.3,0,3.3,0c10.4,0,20.9,0,31.3,0c3.4,0,3.8-0.4,3.8-3.8
		c0-3.8,0.1-7.5,0-11.3C620.9,441.3,615.2,432.5,605.2,428.9z M602.2,454.9c-0.2,0.5-0.9,1.1-1.4,1.1c-6,0.1-11.9,0-18.1,0
		c-1-10,5.2-15.2,13.8-12.1C600.7,445.5,603.5,450.9,602.2,454.9z"/>
	<linearGradient id="XMLID_7_" gradientUnits="userSpaceOnUse" x1="393.9158" y1="497.3331" x2="393.9158" y2="426.7868">
		<stop  offset="0" style="stop-color:#DC911B"/>
		<stop  offset="1" style="stop-color:#E7B142"/>
	</linearGradient>
	<path id="XMLID_1302_" class="st5" d="M404.8,428.3c-8-2.2-16.1-2-23.9,1c-9,3.4-14.7,9.9-15.6,19.5c-0.8,8.2-0.8,16.6-0.4,24.9
		c0.4,8.2,4.4,14.7,11.5,19c12.3,7.4,33,5.8,44.1-3.4c1.5-1.2,1.8-2.4,0.6-4c-1.8-2.4-3.7-4.7-5.3-7.2c-1.6-2.5-3.2-2.5-5.5-1.1
		c-5,2.9-10.6,4.4-16.4,3.8c-6.9-0.7-9.8-4.4-9.2-11.9c1.2,0,2.3,0,3.3,0c10.4,0,20.9,0,31.3,0c3.4,0,3.8-0.4,3.9-3.8
		c0-3.8,0-7.5,0-11.3C422.8,440.3,416.5,431.5,404.8,428.3z M404.1,454.9c-0.2,0.5-1.2,1.1-1.9,1.2c-2.6,0.1-5.2,0.1-7.8,0.1
		c-2.6,0-5.2-0.1-7.8,0c-1.7,0.1-2.1-0.6-2.2-2.2c-0.2-8.4,7.1-13.2,14.8-9.6C402.8,446,405.2,451,404.1,454.9z"/>
	<linearGradient id="XMLID_8_" gradientUnits="userSpaceOnUse" x1="649.7619" y1="495.6922" x2="649.7619" y2="426.9062">
		<stop  offset="0" style="stop-color:#DC911B"/>
		<stop  offset="1" style="stop-color:#E7B142"/>
	</linearGradient>
	<path id="XMLID_1301_" class="st6" d="M666.9,428c-11.6-2.1-22.9-1.4-33.8,3.4c-2.4,1-3.4,2.5-3.3,5.1c0.1,9.2,0,18.4,0,27.5
		c0,0,0,0,0,0c0,9.4,0.1,18.7,0,28.1c0,2.6,0.9,3.7,3.6,3.6c4-0.1,7.9,0,11.9,0c4,0,4.3-0.3,4.3-4.3c0-14.3,0.1-28.6,0-42.9
		c0-2.3,0.8-3.5,2.9-3.6c4.5-0.2,9-0.4,13.5-0.3c3.1,0.1,3.6-0.2,3.7-3.2c0.1-3.3,0-6.6,0-9.9C669.7,429.4,668.9,428.4,666.9,428z"
		/>
</g>
<g id="XMLID_1293_">
	<path id="XMLID_1298_" class="st7" d="M196.1,431.8l17.1,35.1c2.2,4.5,3.3,8.6,3.3,12.4c0,5.2-2.1,9.2-6.2,12.1s-9.4,4.2-15.7,4.2
		h-11.3v-8.1h11.5c8.6,0,12.9-2.7,12.9-8.2c0-3.4-1.3-7.5-3.8-12.4l-16.8-35.1c-1.3-2.7-2.1-6.1-2.3-10.3c0.1-5,1.5-9.2,4.1-12.6
		c2.6-3.4,6.4-5.1,11.5-5.1h10.8v8.1l-8-0.3c-2.8,0-5.2,0.8-7.2,2.5c-2,1.7-3.1,3.9-3.3,6.7c0.1,1.5,0.4,3.1,0.9,4.6
		c0.5,1.5,1.1,3,1.7,4.4C195.8,431.2,196.1,431.9,196.1,431.8z"/>
	<path id="XMLID_1296_" class="st7" d="M232.6,425.6h15.8l3.1,8.1h-18.9v53.7h16.1v8.1h-23.9v-61.8h-4.2l-2.6-8.1h6.7v-22h23.9v7.8
		h-16.1V425.6z"/>
	<path id="XMLID_1294_" class="st7" d="M265.4,487.4h19v8.1h-27.1v-91.9h8.1V487.4z"/>
</g>
<g id="XMLID_1288_">
	<path id="XMLID_1292_" class="st8" d="M374.2,124.7c0-1.2-1-2.2-2.2-2.2h-71.3h-8h0v79.4c0,1.2,1,2.2,2.2,2.2h3.6
		c1.2,0,2.2-1,2.2-2.2v-69.1c0-1.2,1-2.2,2.2-2.2h69.1c1.2,0,2.2-1,2.2-2.2V124.7z"/>
	<path id="XMLID_1291_" class="st8" d="M472.3,124.7c0-1.2,1-2.2,2.2-2.2h71.3h8h0v79.4c0,1.2-1,2.2-2.2,2.2h-3.6
		c-1.2,0-2.2-1-2.2-2.2v-69.1c0-1.2-1-2.2-2.2-2.2h-69.1c-1.2,0-2.2-1-2.2-2.2V124.7z"/>
	<path id="XMLID_1290_" class="st8" d="M374.2,381.5c0,1.2-1,2.2-2.2,2.2h-71.3h-8h0v-79.3c0-1.2,1-2.2,2.2-2.2h3.6
		c1.2,0,2.2,1,2.2,2.2v69c0,1.2,1,2.2,2.2,2.2h69.1c1.2,0,2.2,1,2.2,2.2V381.5z"/>
	<path id="XMLID_1289_" class="st8" d="M472.3,381.5c0,1.2,1,2.2,2.2,2.2h71.3h8h0v-79.3c0-1.2-1-2.2-2.2-2.2h-3.6
		c-1.2,0-2.2,1-2.2,2.2v69c0,1.2-1,2.2-2.2,2.2h-69.1c-1.2,0-2.2,1-2.2,2.2V381.5z"/>
</g>
<g id="XMLID_1163_">
	<g id="XMLID_1283_">
		<path id="XMLID_1285_" class="st9" d="M308.7,141.2v71.1c0,1.4,1.2,2.6,2.6,2.6h71.1c1.4,0,2.6-1.2,2.6-2.6v-71.1
			c0-1.4-1.2-2.6-2.6-2.6h-71.1C309.9,138.6,308.7,139.8,308.7,141.2z M371.4,203.9h-49.1c-1.4,0-2.6-1.2-2.6-2.6v-49.1
			c0-1.4,1.2-2.6,2.6-2.6h49.1c1.4,0,2.6,1.2,2.6,2.6v49.1C374.1,202.7,372.9,203.9,371.4,203.9z"/>
		<path id="XMLID_1284_" class="st9" d="M360.6,160.4h-27.5c-1.4,0-2.6,1.2-2.6,2.6v27.5c0,1.4,1.2,2.6,2.6,2.6h27.5
			c1.4,0,2.6-1.2,2.6-2.6V163C363.2,161.6,362.1,160.4,360.6,160.4z"/>
	</g>
	<g id="XMLID_1278_">
		<path id="XMLID_1280_" class="st9" d="M308.7,293.9V365c0,1.4,1.2,2.6,2.6,2.6h71.1c1.4,0,2.6-1.2,2.6-2.6v-71.1
			c0-1.4-1.2-2.6-2.6-2.6h-71.1C309.9,291.3,308.7,292.4,308.7,293.9z M371.4,356.6h-49.1c-1.4,0-2.6-1.2-2.6-2.6v-49.1
			c0-1.4,1.2-2.6,2.6-2.6h49.1c1.4,0,2.6,1.2,2.6,2.6V354C374.1,355.4,372.9,356.6,371.4,356.6z"/>
		<path id="XMLID_1279_" class="st9" d="M360.6,313.1h-27.5c-1.4,0-2.6,1.2-2.6,2.6v27.5c0,1.4,1.2,2.6,2.6,2.6h27.5
			c1.4,0,2.6-1.2,2.6-2.6v-27.5C363.2,314.3,362.1,313.1,360.6,313.1z"/>
	</g>
	<g id="XMLID_1273_">
		<path id="XMLID_1275_" class="st9" d="M461.4,141.2v71.1c0,1.4,1.2,2.6,2.6,2.6h71.1c1.4,0,2.6-1.2,2.6-2.6v-71.1
			c0-1.4-1.2-2.6-2.6-2.6H464C462.6,138.6,461.4,139.8,461.4,141.2z M524.1,203.9H475c-1.4,0-2.6-1.2-2.6-2.6v-49.1
			c0-1.4,1.2-2.6,2.6-2.6h49.1c1.4,0,2.6,1.2,2.6,2.6v49.1C526.7,202.7,525.6,203.9,524.1,203.9z"/>
		<path id="XMLID_1274_" class="st9" d="M513.3,160.4h-27.5c-1.4,0-2.6,1.2-2.6,2.6v27.5c0,1.4,1.2,2.6,2.6,2.6h27.5
			c1.4,0,2.6-1.2,2.6-2.6V163C515.9,161.6,514.7,160.4,513.3,160.4z"/>
	</g>
	<rect id="XMLID_1272_" x="417.8" y="247.6" class="st9" width="10.9" height="10.9"/>
	<rect id="XMLID_1271_" x="417.8" y="269.4" class="st9" width="10.9" height="10.9"/>
	<rect id="XMLID_1270_" x="417.8" y="291.3" class="st9" width="10.9" height="10.9"/>
	<rect id="XMLID_1269_" x="526.8" y="356.7" class="st9" width="10.9" height="10.9"/>
	<rect id="XMLID_1268_" x="515.9" y="345.8" class="st9" width="10.9" height="10.9"/>
	<rect id="XMLID_1267_" x="505" y="334.9" class="st9" width="10.9" height="10.9"/>
	<rect id="XMLID_1263_" x="472.3" y="291.3" class="st9" width="10.9" height="10.9"/>
	<polygon id="XMLID_1252_" class="st9" points="500,324 494.2,324 483.2,324 472.3,324 472.3,330.8 472.3,334.9 461.4,334.9 
		461.4,342.4 461.4,345.8 461.4,345.8 461.4,356.7 461.4,367.6 472.3,367.6 472.3,356.7 472.3,345.8 477.1,345.8 483.2,345.8 
		483.2,334.9 483.2,334.9 494.2,334.9 500,334.9 505.1,334.9 505.1,324 	"/>
	<rect id="XMLID_1257_" x="526.8" y="313.1" class="st9" width="10.9" height="10.9"/>
	<rect id="XMLID_1256_" x="526.8" y="302.2" class="st9" width="10.9" height="10.9"/>
	<rect id="XMLID_1255_" x="515.9" y="324" class="st9" width="10.9" height="10.9"/>
	<rect id="XMLID_1254_" x="461.4" y="313.1" class="st9" width="10.9" height="10.9"/>
	<polygon id="XMLID_1251_" class="st9" points="494.1,291.3 472.3,291.3 469,291.3 461.4,291.3 461.4,302.2 469,302.2 472.3,302.2 
		472.3,313.1 483.2,313.1 483.2,302.2 494.1,302.2 	"/>
	<polygon id="XMLID_1369_" class="st9" points="515.9,291.3 513.7,291.3 505,291.3 505,302.2 513.7,302.2 515.9,302.2 526.8,302.2 
		526.8,291.3 	"/>
	<rect id="XMLID_1249_" x="396" y="269.4" class="st9" width="10.9" height="10.9"/>
	<rect id="XMLID_1248_" x="385.1" y="269.4" class="st9" width="10.9" height="10.9"/>
	<rect id="XMLID_1247_" x="396" y="280.4" class="st9" width="10.9" height="10.9"/>
	<rect id="XMLID_1246_" x="439.6" y="225.8" class="st9" width="10.9" height="10.9"/>
	<rect id="XMLID_1245_" x="450.5" y="225.8" class="st9" width="10.9" height="10.9"/>
	<rect id="XMLID_1244_" x="439.6" y="214.9" class="st9" width="10.9" height="10.9"/>
	<rect id="XMLID_1243_" x="396" y="225.8" class="st9" width="10.9" height="10.9"/>
	<rect id="XMLID_1242_" x="396" y="214.9" class="st9" width="10.9" height="10.9"/>
	<rect id="XMLID_1228_" x="385.1" y="225.8" class="st9" width="10.9" height="10.9"/>
	<rect id="XMLID_1227_" x="439.6" y="269.4" class="st9" width="10.9" height="10.9"/>
	<rect id="XMLID_1226_" x="450.5" y="269.4" class="st9" width="10.9" height="10.9"/>
	<rect id="XMLID_1174_" x="439.6" y="280.4" class="st9" width="10.9" height="10.9"/>
	<rect id="XMLID_1173_" x="406.9" y="258.5" class="st9" width="10.9" height="10.9"/>
	<rect id="XMLID_1172_" x="428.7" y="258.5" class="st9" width="10.9" height="10.9"/>
	<rect id="XMLID_1171_" x="406.9" y="236.7" class="st9" width="10.9" height="10.9"/>
	<rect id="XMLID_1170_" x="428.7" y="236.7" class="st9" width="10.9" height="10.9"/>
	<rect id="XMLID_1169_" x="417.8" y="225.8" class="st9" width="10.9" height="10.9"/>
	<rect id="XMLID_1168_" x="417.8" y="204" class="st9" width="10.9" height="10.9"/>
	<rect id="XMLID_1167_" x="396" y="247.6" class="st9" width="10.9" height="10.9"/>
	<rect id="XMLID_1166_" x="374.2" y="247.6" class="st9" width="10.9" height="10.9"/>
	<rect id="XMLID_1165_" x="439.6" y="247.6" class="st9" width="10.9" height="10.9"/>
	<rect id="XMLID_1164_" x="461.4" y="247.6" class="st9" width="10.9" height="10.9"/>
</g>
</svg>
