<?xml version="1.0" encoding="iso-8859-1"?>
<!-- Generator: Adobe Illustrator 19.0.0, SVG Export Plug-In . SVG Version: 6.00 Build 0)  -->
<svg version="1.1" id="Capa_1" xmlns="http://www.w3.org/2000/svg" xmlns:xlink="http://www.w3.org/1999/xlink" x="0px" y="0px"
	 viewBox="0 0 512 512" style="enable-background:new 0 0 512 512;" xml:space="preserve">
<circle style="fill:#004EB0;" cx="256" cy="256" r="256"/>
<path style="fill:#002D6B;" d="M512,256c0-18.804-2.046-37.128-5.894-54.778L388.732,83.271C384.896,79.406,379.594,77,373.75,77
	h-235.5c-11.642,0-21.167,9.525-21.167,21.167v315.667c0,5.884,2.438,11.218,6.35,15.061l77.616,77.174
	C218.752,509.941,237.134,512,256,512C397.385,512,512,397.385,512,256z"/>
<path style="fill:#FFAA20;" d="M373.75,435h-235.5c-11.642,0-21.167-9.525-21.167-21.167V98.167
	c0-11.642,9.525-21.167,21.167-21.167h235.5c11.642,0,21.167,9.525,21.167,21.167v315.667C394.917,425.475,385.392,435,373.75,435z"
	/>
<path style="fill:#E67500;" d="M394.92,98.17v315.66c0,11.65-9.53,21.17-21.17,21.17H256V77h117.75
	C385.39,77,394.92,86.52,394.92,98.17z"/>
<rect x="137.67" y="115.67" style="fill:#FFFFFF;" width="236.67" height="297.33"/>
<rect x="256" y="115.67" style="fill:#C8C6CC;" width="118.33" height="297.33"/>
<path style="fill:#E02424;" d="M299.292,139.917h-86.583c-7.494,0-13.625-6.131-13.625-13.625v-21.25
	c0-7.494,6.131-13.625,13.625-13.625h86.583c7.494,0,13.625,6.131,13.625,13.625v21.25
	C312.917,133.785,306.785,139.917,299.292,139.917z"/>
<path style="fill:#990011;" d="M312.92,105.04v21.25c0,7.5-6.13,13.63-13.63,13.63H256v-48.5h43.29
	C306.79,91.42,312.92,97.55,312.92,105.04z"/>
<rect x="177.49" y="261.81" style="fill:#78777F;" width="157.02" height="17.612"/>
<rect x="256" y="261.81" style="fill:#3C3B41;" width="78.51" height="17.61"/>
<rect x="177.49" y="304.69" style="fill:#78777F;" width="157.02" height="17.612"/>
<rect x="256" y="304.69" style="fill:#3C3B41;" width="78.51" height="17.61"/>
<rect x="177.49" y="347.58" style="fill:#78777F;" width="157.02" height="17.612"/>
<rect x="256" y="347.58" style="fill:#3C3B41;" width="78.51" height="17.61"/>
<polygon style="fill:#E02424;" points="266.949,193.082 266.949,170.924 245.051,170.924 245.051,193.082 222.893,193.082 
	222.893,214.98 245.051,214.98 245.051,237.137 266.949,237.137 266.949,214.98 289.107,214.98 289.107,193.082 "/>
<polygon style="fill:#990011;" points="289.11,193.08 289.11,214.98 266.95,214.98 266.95,237.14 256,237.14 256,170.92 
	266.95,170.92 266.95,193.08 "/>
<g>
</g>
<g>
</g>
<g>
</g>
<g>
</g>
<g>
</g>
<g>
</g>
<g>
</g>
<g>
</g>
<g>
</g>
<g>
</g>
<g>
</g>
<g>
</g>
<g>
</g>
<g>
</g>
<g>
</g>
</svg>
