<!-- Generator: Adobe Illustrator 21.0.0, SVG Export Plug-In  -->
<svg version="1.1"
	 xmlns="http://www.w3.org/2000/svg" xmlns:xlink="http://www.w3.org/1999/xlink" xmlns:a="http://ns.adobe.com/AdobeSVGViewerExtensions/3.0/"
	 x="0px" y="0px" width="240.655px" height="310px" viewBox="0 0 240.655 310" style="enable-background:new 0 0 240.655 310;"
	 xml:space="preserve">
<style type="text/css">
	.st0{fill:#FFFCF8;}
	.st1{fill:#FFEDCA;}
	.st2{fill:#009341;}
	.st3{fill:#FFFFFF;}
	.st4{fill:#FFFFEE;}
	.st5{fill:#919191;}
	.st6{fill:#6B6B6B;}
	.st7{fill:url(#SVGID_5_);}
	.st8{clip-path:url(#SVGID_6_);}
	.st9{fill:url(#SVGID_7_);}
	.st10{clip-path:url(#SVGID_8_);}
	.st11{fill:url(#SVGID_9_);}
	.st12{clip-path:url(#SVGID_10_);}
	.st13{fill:url(#SVGID_11_);}
	.st14{clip-path:url(#SVGID_12_);}
	.st15{fill:url(#SVGID_13_);}
	.st16{fill:#636363;}
	.st17{fill:#00682A;}
	.st18{fill:url(#SVGID_14_);}
	.st19{clip-path:url(#SVGID_16_);}
	.st20{fill:url(#SVGID_17_);}
	.st21{clip-path:url(#SVGID_19_);}
	.st22{fill:url(#SVGID_20_);}
	.st23{clip-path:url(#SVGID_22_);}
	.st24{fill:url(#SVGID_23_);}
	.st25{clip-path:url(#SVGID_25_);}
	.st26{fill:url(#SVGID_26_);}
</style>
<defs>
</defs>
<g>
	<polygon class="st0" points="240.655,74.825 165.831,0 0.128,0 0.128,310 240.655,310 	"/>
	<path class="st1" d="M240.655,74.825"/>
	<rect y="0.007" class="st2" width="165.743" height="30.3"/>
	<rect x="2.066" y="265.059" class="st2" width="236.423" height="42.65"/>
	<rect x="2.066" y="266.315" class="st3" width="161.419" height="41.394"/>
	<path class="st4" d="M214.153,48.325l-13.356-13.356l-0.29-0.29h-48.463c-1.521,0-2.752,1.231-2.752,2.752v42.618
		c0,1.521,1.231,2.76,2.752,2.76h59.639c1.528,0,2.76-1.239,2.76-2.76V48.615L214.153,48.325z"/>
	<path class="st2" d="M214.443,48.615l-0.29-0.29v31.724c0,1.362-1.108,2.463-2.47,2.463h-59.639c-1.354,0-2.463-1.101-2.463-2.463
		V37.432c0-1.354,1.108-2.463,2.463-2.463h48.753l-0.29-0.29l-0.196-0.196l-0.102-0.101h-48.166c-1.68,0-3.049,1.369-3.049,3.049
		v42.618c0,1.68,1.369,3.049,3.049,3.049h59.639c1.688,0,3.057-1.369,3.057-3.049V48.912L214.443,48.615z"/>
	<rect x="149.242" y="69.209" class="st2" width="65.25" height="5.283"/>
	<rect x="149.242" y="56.883" class="st2" width="65.25" height="5.283"/>
	<path class="st2" d="M205.592,39.764h-56.35v-2.296c0-1.651,1.34-2.984,2.991-2.984h48.079l0.196,0.196l0.29,0.29L205.592,39.764z"
		/>
	<g>
		<g>
			<path class="st2" d="M212.446,110.297h-61.159c-1.263,0-2.29-1.027-2.29-2.291V86.761c0-1.263,1.027-2.29,2.29-2.29h61.159
				c1.263,0,2.29,1.027,2.29,2.29v21.246C214.737,109.269,213.709,110.297,212.446,110.297z M151.287,85.058
				c-0.939,0-1.703,0.764-1.703,1.703v21.246c0,0.939,0.764,1.704,1.703,1.704h61.159c0.939,0,1.703-0.764,1.703-1.704V86.761
				c0-0.939-0.764-1.703-1.703-1.703H151.287z"/>
		</g>
		<g>
			<path class="st2" d="M214.492,89.851h-65.25v-2.293c0-1.651,1.339-2.99,2.99-2.99h59.271c1.651,0,2.99,1.339,2.99,2.99V89.851z"
				/>
		</g>
	</g>
	<g>
		<g>
			<path class="st2" d="M212.477,136.514h-61.221c-1.246,0-2.259-1.013-2.259-2.259V113.73c0-1.246,1.013-2.259,2.259-2.259h61.221
				c1.246,0,2.259,1.013,2.259,2.259v20.526C214.737,135.501,213.723,136.514,212.477,136.514z M151.256,112.058
				c-0.922,0-1.672,0.75-1.672,1.672v20.526c0,0.922,0.75,1.672,1.672,1.672h61.221c0.922,0,1.672-0.75,1.672-1.672V113.73
				c0-0.922-0.75-1.672-1.672-1.672H151.256z"/>
		</g>
		<path class="st2" d="M214.492,116.851h-65.25v-2.293c0-1.651,1.339-2.99,2.99-2.99h59.271c1.651,0,2.99,1.339,2.99,2.99V116.851z"
			/>
	</g>
	<g>
		<g>
			<path class="st4" d="M211.269,201.96h-58.804c-1.753,0-3.174-1.421-3.174-3.174v-57.434c0-1.753,1.421-3.174,3.174-3.174h58.804
				c1.753,0,3.174,1.421,3.174,3.174v57.434C214.443,200.539,213.022,201.96,211.269,201.96z"/>
			<g>
				<path class="st2" d="M214.492,143.264h-65.25v-2.293c0-1.651,1.339-2.99,2.99-2.99h59.271c1.651,0,2.99,1.339,2.99,2.99V143.264
					z"/>
			</g>
		</g>
		<path class="st2" d="M211.024,202.254H152.22c-1.912,0-3.468-1.556-3.468-3.468v-57.434c0-1.912,1.556-3.468,3.468-3.468h58.804
			c1.912,0,3.468,1.556,3.468,3.468v57.434C214.492,200.698,212.936,202.254,211.024,202.254z M152.22,138.471
			c-1.589,0-2.881,1.292-2.881,2.881v57.434c0,1.589,1.292,2.881,2.881,2.881h58.804c1.589,0,2.881-1.292,2.881-2.881v-57.434
			c0-1.589-1.292-2.881-2.881-2.881H152.22z"/>
	</g>
	<rect x="163.309" y="266.315" class="st4" width="69.01" height="41.394"/>
	<g>
		<path class="st5" d="M211.373,263.298h-59.012c-1.696,0-3.07-1.375-3.07-3.07v-53.534c0-1.696,1.375-3.07,3.07-3.07h59.012
			c1.696,0,3.07,1.375,3.07,3.07v53.534C214.443,261.923,213.068,263.298,211.373,263.298z"/>
		<path class="st2" d="M214.492,208.711h-65.25v-2.293c0-1.651,1.339-2.99,2.99-2.99h59.271c1.651,0,2.99,1.339,2.99,2.99V208.711z"
			/>
	</g>
	<g>
		<g>
			<path class="st6" d="M132.803,98.655H29.44c-1.287,0-2.334-0.935-2.334-2.085V86.36c0-1.15,1.047-2.085,2.334-2.085h103.363
				c1.286,0,2.333,0.935,2.333,2.085v10.211C135.137,97.72,134.09,98.655,132.803,98.655z M29.44,84.862
				c-0.925,0-1.677,0.672-1.677,1.498v10.211c0,0.826,0.752,1.498,1.677,1.498h103.363c0.924,0,1.676-0.672,1.676-1.498V86.36
				c0-0.826-0.752-1.498-1.676-1.498H29.44z"/>
		</g>
		<g>
			<path class="st6" d="M134.889,89.655H27.354v-2.697c0-1.428,1.158-2.586,2.586-2.586h102.362c1.428,0,2.586,1.158,2.586,2.586
				V89.655z"/>
		</g>
	</g>
	<g>
		<path class="st6" d="M132.699,238.608H29.544c-1.344,0-2.438-0.977-2.438-2.178v-11.493c0-1.201,1.093-2.178,2.438-2.178h103.156
			c1.344,0,2.437,0.977,2.437,2.178v11.493C135.137,237.631,134.043,238.608,132.699,238.608z M29.544,223.347
			c-0.982,0-1.781,0.714-1.781,1.591v11.493c0,0.877,0.799,1.591,1.781,1.591h103.156c0.982,0,1.78-0.714,1.78-1.591v-11.493
			c0-0.877-0.799-1.591-1.78-1.591H29.544z"/>
	</g>
	<g>
		<g>
			<path class="st6" d="M132.432,155.572H29.811c-1.491,0-2.704-1.084-2.704-2.416v-15.125c0-1.332,1.213-2.416,2.704-2.416h102.621
				c1.491,0,2.704,1.084,2.704,2.416v15.125C135.137,154.488,133.923,155.572,132.432,155.572z M29.811,136.202
				c-1.129,0-2.047,0.821-2.047,1.829v15.125c0,1.009,0.919,1.829,2.047,1.829h102.621c1.129,0,2.047-0.821,2.047-1.829v-15.125
				c0-1.009-0.918-1.829-2.047-1.829H29.811z"/>
		</g>
		<g>
			<path class="st6" d="M134.889,140.996H27.354v-2.697c0-1.428,1.158-2.586,2.586-2.586h102.362c1.428,0,2.586,1.158,2.586,2.586
				V140.996z"/>
		</g>
	</g>
	<g>
		<g>
			<path class="st6" d="M131.413,133.58H30.83c-1.872,0-3.396-1.361-3.396-3.034v-26.998c0-1.673,1.523-3.034,3.396-3.034h100.583
				c1.873,0,3.396,1.361,3.396,3.034v26.998C134.809,132.219,133.285,133.58,131.413,133.58z M30.83,101.101
				c-1.51,0-2.738,1.098-2.738,2.447v26.998c0,1.349,1.228,2.447,2.738,2.447h100.583c1.51,0,2.739-1.098,2.739-2.447v-26.998
				c0-1.349-1.229-2.447-2.739-2.447H30.83z"/>
		</g>
		<g>
			<path class="st6" d="M134.56,105.895H27.683v-2.704c0-1.424,1.154-2.578,2.578-2.578h101.721c1.424,0,2.578,1.154,2.578,2.578
				V105.895z"/>
		</g>
	</g>
	<g>
		<linearGradient id="SVGID_5_" gradientUnits="userSpaceOnUse" x1="27.644" y1="161.8873" x2="134.9608" y2="161.8873">
			<stop  offset="0" style="stop-color:#39B54A"/>
			<stop  offset="0.5075" style="stop-color:#FCEE21"/>
			<stop  offset="1" style="stop-color:#ED1C24"/>
		</linearGradient>
		<path class="st7" d="M131.317,165.531H31.288c-2.004,0-3.644-1.64-3.644-3.644l0,0c0-2.004,1.64-3.644,3.644-3.644h100.029
			c2.004,0,3.644,1.64,3.644,3.644l0,0C134.961,163.891,133.321,165.531,131.317,165.531z"/>
	</g>
	<g>
		<g>
			<defs>
				<path id="SVGID_4_" d="M93.464,201.703c0,0,2.274,2.495,2.935,9.905c0,0,0.66,2.421,4.109,1.614c0,0,2.935-0.22,2.201-5.283
					c0,0-1.174-6.823-3.669-9.538L93.464,201.703z"/>
			</defs>
			<clipPath id="SVGID_6_">
				<use xlink:href="#SVGID_4_"  style="overflow:visible;"/>
			</clipPath>
			<g class="st8">
				<linearGradient id="SVGID_7_" gradientUnits="userSpaceOnUse" x1="40.2708" y1="194.7326" x2="115.9888" y2="194.7326">
					<stop  offset="0" style="stop-color:#39B54A"/>
					<stop  offset="0.5075" style="stop-color:#FCEE21"/>
					<stop  offset="1" style="stop-color:#ED1C24"/>
				</linearGradient>
				<path class="st9" d="M110.247,221.586H46.013c-3.158,0-5.742-2.584-5.742-5.742v-42.223c0-3.158,2.584-5.742,5.742-5.742h64.234
					c3.158,0,5.742,2.584,5.742,5.742v42.223C115.989,219.002,113.405,221.586,110.247,221.586z"/>
			</g>
		</g>
		<g>
			<defs>
				<path id="SVGID_3_" d="M91.483,198.621c0,0-8.266-8.242-20.886-3.84c0,0-11.103,5.307-10.516,17.413c0,0-0.293,1.81-3.522,1.81
					c0,0-2.543-0.538-2.739-2.886c0,0-0.856-14.332,13.745-22.109c0,0,16.948-7.704,28.688,5.429L91.483,198.621z"/>
			</defs>
			<clipPath id="SVGID_8_">
				<use xlink:href="#SVGID_3_"  style="overflow:visible;"/>
			</clipPath>
			<g class="st10">
				<linearGradient id="SVGID_9_" gradientUnits="userSpaceOnUse" x1="40.2708" y1="194.7326" x2="115.9888" y2="194.7326">
					<stop  offset="0" style="stop-color:#39B54A"/>
					<stop  offset="0.5075" style="stop-color:#FCEE21"/>
					<stop  offset="1" style="stop-color:#ED1C24"/>
				</linearGradient>
				<path class="st11" d="M110.247,221.586H46.013c-3.158,0-5.742-2.584-5.742-5.742v-42.223c0-3.158,2.584-5.742,5.742-5.742
					h64.234c3.158,0,5.742,2.584,5.742,5.742v42.223C115.989,219.002,113.405,221.586,110.247,221.586z"/>
			</g>
		</g>
		<g>
			<defs>
				<path id="SVGID_2_" d="M100.728,190.379c0,0-12.033-14.087-33.555-7.337c0,0-19.957,8.217-19.272,29.348
					c0,0-0.734,2.005-4.109,1.785c0,0-2.421-0.44-2.495-2.348c0,0-1.247-21.938,20.03-33.53c0,0,25.533-12.62,44.242,7.851
					L100.728,190.379z"/>
			</defs>
			<clipPath id="SVGID_10_">
				<use xlink:href="#SVGID_2_"  style="overflow:visible;"/>
			</clipPath>
			<g class="st12">
				<linearGradient id="SVGID_11_" gradientUnits="userSpaceOnUse" x1="40.2708" y1="194.7326" x2="115.9888" y2="194.7326">
					<stop  offset="0" style="stop-color:#39B54A"/>
					<stop  offset="0.5075" style="stop-color:#FCEE21"/>
					<stop  offset="1" style="stop-color:#ED1C24"/>
				</linearGradient>
				<path class="st13" d="M110.247,221.586H46.013c-3.158,0-5.742-2.584-5.742-5.742v-42.223c0-3.158,2.584-5.742,5.742-5.742
					h64.234c3.158,0,5.742,2.584,5.742,5.742v42.223C115.989,219.002,113.405,221.586,110.247,221.586z"/>
			</g>
		</g>
		<g>
			<defs>
				<path id="SVGID_1_" d="M104.25,195.393c0,0,4.035,4.842,4.549,16.068c0,0,0.807,2.274,4.109,1.614c0,0,2.568-0.514,2.568-3.082
					c0,0-0.734-11.152-5.723-18.269L104.25,195.393z"/>
			</defs>
			<clipPath id="SVGID_12_">
				<use xlink:href="#SVGID_1_"  style="overflow:visible;"/>
			</clipPath>
			<g class="st14">
				<linearGradient id="SVGID_13_" gradientUnits="userSpaceOnUse" x1="40.2708" y1="194.7326" x2="115.9888" y2="194.7326">
					<stop  offset="0" style="stop-color:#39B54A"/>
					<stop  offset="0.5075" style="stop-color:#FCEE21"/>
					<stop  offset="1" style="stop-color:#ED1C24"/>
				</linearGradient>
				<path class="st15" d="M110.247,221.586H46.013c-3.158,0-5.742-2.584-5.742-5.742v-42.223c0-3.158,2.584-5.742,5.742-5.742
					h64.234c3.158,0,5.742,2.584,5.742,5.742v42.223C115.989,219.002,113.405,221.586,110.247,221.586z"/>
			</g>
		</g>
	</g>
	<g>
		<path class="st2" d="M200.93,281.945h-20.643c-0.155,0-0.28-0.227-0.28-0.507c0-0.28,0.125-0.508,0.28-0.508h20.643
			c0.154,0,0.28,0.227,0.28,0.508C201.21,281.718,201.085,281.945,200.93,281.945z"/>
	</g>
	<g>
		<path d="M213.148,287.375h-32.697c-0.245,0-0.443-0.227-0.443-0.507c0-0.28,0.198-0.508,0.443-0.508h32.697
			c0.245,0,0.443,0.227,0.443,0.508C213.591,287.147,213.393,287.375,213.148,287.375z"/>
	</g>
	<g>
		<path class="st16" d="M213.148,292.559h-32.697c-0.245,0-0.443-0.227-0.443-0.507s0.198-0.508,0.443-0.508h32.697
			c0.245,0,0.443,0.227,0.443,0.508S213.393,292.559,213.148,292.559z"/>
	</g>
	<g>
		<path class="st2" d="M109.35,39.487H28.206c-0.608,0-1.1-0.227-1.1-0.507s0.493-0.508,1.1-0.508h81.143
			c0.607,0,1.1,0.227,1.1,0.508S109.957,39.487,109.35,39.487z"/>
	</g>
	<g>
		<path class="st2" d="M109.35,45.259H28.206c-0.608,0-1.1-0.227-1.1-0.507s0.493-0.508,1.1-0.508h81.143
			c0.607,0,1.1,0.227,1.1,0.508S109.957,45.259,109.35,45.259z"/>
	</g>
	<g>
		<path class="st2" d="M86.181,50.541H27.897c-0.437,0-0.79-0.227-0.79-0.507c0-0.28,0.354-0.508,0.79-0.508h58.285
			c0.436,0,0.79,0.227,0.79,0.508C86.971,50.314,86.617,50.541,86.181,50.541z"/>
	</g>
	<g>
		<g>
			<path d="M90.566,62.644H38.715c-0.388,0-0.703-0.227-0.703-0.507s0.315-0.508,0.703-0.508h51.851
				c0.388,0,0.703,0.227,0.703,0.508S90.954,62.644,90.566,62.644z"/>
		</g>
		<g>
			<path d="M82.874,65.791H38.612c-0.332,0-0.6-0.205-0.6-0.457c0-0.252,0.269-0.457,0.6-0.457h44.262c0.331,0,0.6,0.205,0.6,0.457
				C83.474,65.587,83.205,65.791,82.874,65.791z"/>
		</g>
		<g>
			<path d="M72.418,69.247H38.472c-0.254,0-0.46-0.227-0.46-0.507s0.206-0.508,0.46-0.508h33.945c0.254,0,0.46,0.227,0.46,0.508
				S72.672,69.247,72.418,69.247z"/>
		</g>
		<g>
			<path d="M90.566,72.524H38.715c-0.388,0-0.703-0.227-0.703-0.507s0.315-0.508,0.703-0.508h51.851
				c0.388,0,0.703,0.227,0.703,0.508S90.954,72.524,90.566,72.524z"/>
		</g>
		<g>
			<path d="M82.874,75.672H38.612c-0.332,0-0.6-0.205-0.6-0.457c0-0.252,0.269-0.457,0.6-0.457h44.262c0.331,0,0.6,0.205,0.6,0.457
				C83.474,75.467,83.205,75.672,82.874,75.672z"/>
		</g>
	</g>
	<g>
		<g>
			<rect x="32.971" y="274.875" width="1.174" height="23.87"/>
		</g>
		<g>
			<rect x="34.952" y="274.875" width="0.88" height="23.87"/>
		</g>
		<g>
			<rect x="37.593" y="274.875" width="0.587" height="23.87"/>
		</g>
		<g>
			<rect x="36.603" y="274.875" width="0.293" height="23.87"/>
		</g>
		<g>
			<rect x="38.62" y="274.875" width="0.587" height="23.87"/>
		</g>
		<g>
			<rect x="40.344" y="274.875" width="1.174" height="23.87"/>
		</g>
		<g>
			<rect x="42.656" y="274.875" width="1.174" height="23.87"/>
		</g>
		<g>
			<rect x="44.417" y="274.875" width="0.293" height="23.87"/>
		</g>
		<g>
			<rect x="45.224" y="274.875" width="0.293" height="23.87"/>
		</g>
		<g>
			<rect x="45.994" y="274.875" width="0.293" height="23.87"/>
		</g>
		<g>
			<rect x="47.058" y="274.875" width="0.587" height="23.87"/>
		</g>
		<g>
			<rect x="48.122" y="274.875" width="0.587" height="23.87"/>
		</g>
		<g>
			<rect x="49.846" y="274.875" width="1.174" height="23.87"/>
		</g>
		<g>
			<rect x="52.01" y="274.875" width="0.293" height="23.87"/>
		</g>
		<g>
			<rect x="53.148" y="274.875" width="0.88" height="23.87"/>
		</g>
		<g>
			<rect x="54.908" y="274.875" width="0.88" height="23.87"/>
		</g>
		<g>
			<rect x="56.596" y="274.875" width="0.293" height="23.87"/>
		</g>
		<g>
			<rect x="57.403" y="274.875" width="0.293" height="23.87"/>
		</g>
		<g>
			<rect x="58.173" y="274.875" width="0.293" height="23.87"/>
		</g>
		<g>
			<rect x="59.237" y="274.875" width="0.587" height="23.87"/>
		</g>
		<g>
			<rect x="86.237" y="274.875" width="1.174" height="23.87"/>
		</g>
		<g>
			<rect x="84.55" y="274.875" width="0.88" height="23.87"/>
		</g>
		<g>
			<rect x="82.202" y="274.875" width="0.587" height="23.87"/>
		</g>
		<g>
			<rect x="83.486" y="274.875" width="0.293" height="23.87"/>
		</g>
		<g>
			<rect x="81.175" y="274.875" width="0.587" height="23.87"/>
		</g>
		<g>
			<rect x="78.864" y="274.875" width="1.174" height="23.87"/>
		</g>
		<g>
			<rect x="76.553" y="274.875" width="1.174" height="23.87"/>
		</g>
		<g>
			<rect x="75.672" y="274.875" width="0.293" height="23.87"/>
		</g>
		<g>
			<rect x="74.865" y="274.875" width="0.293" height="23.87"/>
		</g>
		<g>
			<rect x="74.095" y="274.875" width="0.293" height="23.87"/>
		</g>
		<g>
			<rect x="72.737" y="274.875" width="0.587" height="23.87"/>
		</g>
		<g>
			<rect x="71.674" y="274.875" width="0.587" height="23.87"/>
		</g>
		<g>
			<rect x="69.362" y="274.875" width="1.174" height="23.87"/>
		</g>
		<g>
			<rect x="68.078" y="274.875" width="0.293" height="23.87"/>
		</g>
		<g>
			<rect x="66.354" y="274.875" width="0.88" height="23.87"/>
		</g>
		<g>
			<rect x="64.593" y="274.875" width="0.88" height="23.87"/>
		</g>
		<g>
			<rect x="63.493" y="274.875" width="0.293" height="23.87"/>
		</g>
		<g>
			<rect x="62.686" y="274.875" width="0.293" height="23.87"/>
		</g>
		<g>
			<rect x="61.915" y="274.875" width="0.293" height="23.87"/>
		</g>
		<g>
			<rect x="60.558" y="274.875" width="0.587" height="23.87"/>
		</g>
		<g>
			<rect x="87.998" y="274.875" width="0.587" height="23.87"/>
		</g>
		<g>
			<rect x="89.099" y="274.875" width="0.587" height="23.87"/>
		</g>
		<g>
			<rect x="90.126" y="274.875" width="0.587" height="23.87"/>
		</g>
		<g>
			<rect x="91.3" y="274.875" width="0.293" height="23.87"/>
		</g>
		<g>
			<rect x="92.254" y="274.875" width="0.293" height="23.87"/>
		</g>
		<g>
			<rect x="93.061" y="274.875" width="0.293" height="23.87"/>
		</g>
		<g>
			<rect x="93.831" y="274.875" width="0.293" height="23.87"/>
		</g>
		<g>
			<rect x="94.895" y="274.875" width="0.587" height="23.87"/>
		</g>
		<g>
			<rect x="96.093" y="274.875" width="0.88" height="23.87"/>
		</g>
		<g>
			<rect x="97.854" y="274.875" width="0.88" height="23.87"/>
		</g>
		<g>
			<rect x="99.542" y="274.875" width="0.293" height="23.87"/>
		</g>
		<g>
			<rect x="100.349" y="274.875" width="0.293" height="23.87"/>
		</g>
		<g>
			<rect x="101.119" y="274.875" width="0.293" height="23.87"/>
		</g>
		<g>
			<rect x="102.183" y="274.875" width="0.587" height="23.87"/>
		</g>
		<g>
			<rect x="107.539" y="274.875" width="0.88" height="23.87"/>
		</g>
		<g>
			<rect x="106.439" y="274.875" width="0.293" height="23.87"/>
		</g>
		<g>
			<rect x="105.632" y="274.875" width="0.293" height="23.87"/>
		</g>
		<g>
			<rect x="104.861" y="274.875" width="0.293" height="23.87"/>
		</g>
		<g>
			<rect x="103.504" y="274.875" width="0.587" height="23.87"/>
		</g>
		<g>
			<rect x="113.494" y="274.875" width="0.293" height="23.87"/>
		</g>
		<g>
			<rect x="112.724" y="274.875" width="0.293" height="23.87"/>
		</g>
		<g>
			<rect x="111.367" y="274.875" width="0.587" height="23.87"/>
		</g>
		<g>
			<rect x="108.982" y="274.875" width="0.293" height="23.87"/>
		</g>
		<g>
			<rect x="110.046" y="274.875" width="0.587" height="23.87"/>
		</g>
	</g>
	<path class="st17" d="M214.74,48.912l-0.297-0.297l-0.29-0.29l-13.356-13.356l-0.29-0.29l-0.196-0.196l-0.102-0.101L165.828,0
		v74.827h74.827L214.74,48.912z"/>
</g>
</svg>